 http://img6.imageshack.us/img6/527/dvzvexs56jrqdb1l.jpg


IMDB:  
http://www.imdb.com/title/tt2417650/

PLOT INFO:
After a stint in a p a psychiatric hospital, a young woman returns to the house where here father killed the entire cast of The Artist during his exorcism.

MEDIAINFO:
General
Complete name                    : 30.Night.Of.Paranormal.Activity.With.The.Devil.Inside.The.Girl.With.The.Dragon.Tattoo.2013.DVDRiP.AC3-5.1.XviD-AXED
Format                           : AVI
Format/Info                      : Audio Video Interleave
File size                        : 1.54 GiB
Duration                         : 1h 19mn
Overall bit rate                 : 2 748 Kbps

Video
ID                               : 0
Format                           : MPEG-4 Visual
Format profile                   : Advanced Simple@L5
Format settings, BVOP            : 1
Format settings, QPel            : No
Format settings, GMC             : No warppoints
Format settings, Matrix          : Default (H.263)
Codec ID                         : XVID
Codec ID/Hint                    : XviD
Duration                         : 1h 19mn
Bit rate                         : 2 293 Kbps
Width                            : 720 pixels
Height                           : 384 pixels
Display aspect ratio             : 1.875
Frame rate                       : 23.976 fps
Color space                      : YUV
Chroma subsampling               : 4:2:0
Bit depth                        : 8 bits
Scan type                        : Progressive
Compression mode                 : Lossy
Bits/(Pixel*Frame)               : 0.346
Stream size                      : 1.28 GiB (83%)
Writing library                  : XviD 1.2.1 (UTC 2008-12-04)

Audio
ID                               : 1
Format                           : AC-3
Format/Info                      : Audio Coding 3
Mode extension                   : CM (complete main)
Codec ID                         : 2000
Duration                         : 1h 19mn
Bit rate mode                    : Constant
Bit rate                         : 448 Kbps
Channel(s)                       : 6 channels
Channel positions                : Front: L C R, Side: L R, LFE
Sampling rate                    : 48.0 KHz
Bit depth                        : 16 bits
Compression mode                 : Lossy
Stream size                      : 256 MiB (16%)
Alignment                        : Aligned on interleaves
Interleave, duration             : 64 ms (1.53 video frames)
Interleave, preload duration     : 192 ms
Title                            : VTS_01_1 T80 3_2ch 448Kbps DELAY 0ms


SOURCE: 
Retail DVD


NOTES: 
I'm sure this one is fuckin' awesome.

AXED! - We're still lurking, out there in the darkness


 
http://imageshack.us/a/img9/1122/43855967.png 
http://imageshack.us/a/img9/6333/32473588.png 
http://imageshack.us/a/img202/2773/84829584.png 
http://imageshack.us/a/img51/2204/55354286.png